HIERARCHY
ROOT Hips
{
	OFFSET -32.860001 56.121803 44.745396
	CHANNELS 6 Xposition Yposition Zposition Zrotation Xrotation Yrotation
	JOINT Chest
	{
		OFFSET -0.637402 0.831600 5.390099
		CHANNELS 6 Xposition Yposition Zposition Zrotation Xrotation Yrotation
		JOINT Chest2
		{
			OFFSET 0.000000 0.000000 4.429901
			CHANNELS 6 Xposition Yposition Zposition Zrotation Xrotation Yrotation
			JOINT Neck
			{
				OFFSET 0.000000 0.000000 10.301395
				CHANNELS 6 Xposition Yposition Zposition Zrotation Xrotation Yrotation
				JOINT Head
				{
					OFFSET 0.000000 0.000000 2.173897
					CHANNELS 6 Xposition Yposition Zposition Zrotation Xrotation Yrotation
					End Site
					{
						OFFSET 0.000000 0.000000 8.298004
					}
				}
			}
			JOINT LeftCollar
			{
				OFFSET 2.142401 -0.572701 5.717800
				CHANNELS 6 Xposition Yposition Zposition Zrotation Xrotation Yrotation
				JOINT LeftShoulder
				{
					OFFSET 5.674000 0.000000 0.000000
					CHANNELS 6 Xposition Yposition Zposition Zrotation Xrotation Yrotation
					JOINT LeftElbow
					{
						OFFSET 0.000000 0.000000 -12.238701
						CHANNELS 6 Xposition Yposition Zposition Zrotation Xrotation Yrotation
						JOINT LeftWrist
						{
							OFFSET 0.000000 0.000000 -10.253700
							CHANNELS 6 Xposition Yposition Zposition Zrotation Xrotation Yrotation
							End Site
							{
								OFFSET 0.000000 0.000000 -2.173901
							}
						}
					}
				}
			}
			JOINT RightCollar
			{
				OFFSET -2.882599 -1.580101 6.695801
				CHANNELS 6 Xposition Yposition Zposition Zrotation Xrotation Yrotation
				JOINT RightShoulder
				{
					OFFSET -4.235600 0.000000 0.000000
					CHANNELS 6 Xposition Yposition Zposition Zrotation Xrotation Yrotation
					JOINT RightElbow
					{
						OFFSET 0.000000 0.000000 -10.709900
						CHANNELS 6 Xposition Yposition Zposition Zrotation Xrotation Yrotation
						JOINT RightWrist
						{
							OFFSET 0.000000 0.000000 -11.716801
							CHANNELS 6 Xposition Yposition Zposition Zrotation Xrotation Yrotation
							End Site
							{
								OFFSET 0.000000 0.000000 -2.173901
							}
						}
					}
				}
			}
		}
	}
	JOINT LeftHip
	{
		OFFSET 2.279499 0.210400 -2.475502
		CHANNELS 6 Xposition Yposition Zposition Zrotation Xrotation Yrotation
		JOINT LeftKnee
		{
			OFFSET 0.000000 -0.000004 -20.742800
			CHANNELS 6 Xposition Yposition Zposition Zrotation Xrotation Yrotation
			JOINT LeftAnkle
			{
				OFFSET 0.000000 0.000000 -16.666000
				CHANNELS 6 Xposition Yposition Zposition Zrotation Xrotation Yrotation
				End Site
				{
					OFFSET 0.000000 -8.310898 0.000000
				}
			}
		}
	}
	JOINT RightHip
	{
		OFFSET -1.961899 0.232300 -2.727402
		CHANNELS 6 Xposition Yposition Zposition Zrotation Xrotation Yrotation
		JOINT RightKnee
		{
			OFFSET 0.000000 -0.000004 -20.526800
			CHANNELS 6 Xposition Yposition Zposition Zrotation Xrotation Yrotation
			JOINT RightAnkle
			{
				OFFSET 0.000000 0.000000 -16.867300
				CHANNELS 6 Xposition Yposition Zposition Zrotation Xrotation Yrotation
				End Site
				{
					OFFSET 0.000000 -7.186401 0.000000
				}
			}
		}
	}
}
MOTION
Frames: 4
Frame Time: 0.041667
-44.291801 28.168306 42.536793 1151.805071 12.292719 -4.419364 -0.637407 0.831604 5.390100 -10.399711 7.544450 3.590356 -0.000005 -0.000001 4.429904 3.794822 -3.659104 -0.366371 -0.000001 -0.000013 10.301400 368.672274 3.136767 -1.791713 -0.000001 0.000002 2.173898 -357.002568 -0.259359 3.072087 2.142395 -0.572713 5.717805 -4.626606 -3.367984 -10.480751 5.674015 -0.000007 0.000001 88.818762 -217.774858 209.335217 0.000002 -0.000004 -12.238702 -775.920855 4.971233 -360.372856 0.000002 -0.000007 -10.253700 1195.950168 8.578467 4.401327 -2.882599 -1.580109 6.695794 -13.401601 -6.583199 -6.694183 -4.235601 0.000004 -0.000002 -224.777673 37.173506 -71.736077 0.000004 0.000002 -10.709903 136.713340 -179.518886 190.264796 0.000008 0.000006 -11.716803 -502.347682 -145.214699 106.122036 2.279503 0.210401 -2.475495 386.085759 -24.722114 11.255938 -0.000006 -0.000010 -20.742802 -479.057666 15.443300 74.422158 -0.000004 0.000003 -16.666000 438.085082 4.982308 46.399087 -1.961901 0.232304 -2.727404 -1139.219054 -39.531994 -37.609767 0.000003 -0.000004 -20.526798 963.797830 120.273935 -199.031917 -0.000004 0.000002 -16.867302 -3.096951 20.431244 -2.336219
-43.974709 27.863903 42.305695 1151.729119 11.292957 -4.430211 -0.637407 0.831603 5.390094 -10.257478 7.604535 3.145688 0.000001 0.000001 4.429901 3.672104 -3.676124 -0.364449 -0.000001 -0.000008 10.301401 369.972660 2.813342 -0.652763 -0.000006 0.000001 2.173905 -356.888312 -0.003727 2.979888 2.142394 -0.572699 5.717794 -4.472152 -3.656288 -7.486811 5.674004 -0.000004 0.000009 87.344398 -214.502938 207.809667 -0.000005 0.000003 -12.238694 -772.381779 3.517106 -359.517799 0.000002 -0.000008 -10.253700 1195.380694 10.453009 3.048898 -2.882600 -1.580102 6.695796 -10.571099 -4.546224 -7.993592 -4.235613 -0.000010 0.000000 -230.134427 37.094518 -65.445814 0.000003 0.000000 -10.709899 137.081787 -179.915816 189.294581 0.000002 0.000006 -11.716797 -496.850418 -153.123566 109.971831 2.279495 0.210402 -2.475500 388.811469 -26.333002 13.946363 -0.000000 -0.000002 -20.742802 -484.994903 9.245575 79.559847 0.000004 0.000002 -16.666004 442.290949 6.361419 47.611514 -1.961902 0.232304 -2.727398 -1137.960988 -39.446159 -36.751370 0.000003 -0.000007 -20.526796 970.478411 119.360506 -205.453648 -0.000002 0.000002 -16.867298 -6.711132 19.229465 -2.765594
-43.707195 27.590302 42.078697 1151.676008 10.456428 -4.531309 -0.637404 0.831600 5.390102 -9.659978 7.634908 2.684788 -0.000006 0.000005 4.429898 3.463361 -3.681302 -0.353538 0.000003 -0.000003 10.301390 370.794605 2.450308 0.477697 -0.000000 0.000001 2.173903 -356.773920 0.251707 2.909845 2.142399 -0.572707 5.717800 -4.536725 -3.750060 -3.787907 5.673999 -0.000007 -0.000002 86.024634 -212.327837 205.316484 0.000003 -0.000007 -12.238702 -769.606373 2.792377 -359.034440 -0.000005 -0.000001 -10.253697 1196.172669 12.225420 2.137461 -2.882594 -1.580102 6.695797 -7.532284 -2.555646 -9.150627 -4.235604 -0.000011 -0.000002 -235.894954 36.920208 -58.145052 0.000006 0.000000 -10.709897 138.118569 -180.103592 188.538179 -0.000003 0.000000 -11.716798 -494.197081 -157.129253 112.255887 2.279499 0.210402 -2.475495 391.715502 -28.101078 17.283724 -0.000002 -0.000001 -20.742809 -489.220550 5.322397 83.774162 0.000003 0.000006 -16.665997 444.038302 7.466527 48.009085 -1.961895 0.232296 -2.727402 -1136.871327 -39.492376 -36.087612 0.000000 -0.000008 -20.526796 976.831689 118.783874 -211.704596 -0.000001 0.000002 -16.867302 -10.122210 18.264776 -2.947287
-43.501396 27.337307 41.862888 1152.057187 9.503506 -4.854746 -0.637400 0.831603 5.390101 -8.966009 7.909501 2.362733 0.000005 0.000005 4.429902 3.120513 -3.683244 -0.352127 0.000001 -0.000003 10.301399 371.216328 2.026783 1.640094 0.000003 -0.000001 2.173906 -356.821103 0.426613 2.741433 2.142393 -0.572698 5.717807 -4.777305 -3.694760 -0.814435 5.674006 0.000003 0.000000 84.386844 -209.970192 201.954528 -0.000014 0.000004 -12.238696 -767.979695 2.749249 -358.943872 0.000001 -0.000007 -10.253702 1198.544438 13.984493 1.703359 -2.882602 -1.580099 6.695803 -4.375292 -0.668178 -10.316694 -4.235606 -0.000004 -0.000002 -241.499315 36.152410 -50.288917 -0.000003 0.000002 -10.709900 139.573194 -180.420075 188.129706 -0.000004 0.000010 -11.716797 -492.832791 -159.839226 114.538809 2.279498 0.210406 -2.475502 394.555877 -29.731465 21.181660 -0.000002 -0.000004 -20.742794 -492.803722 1.751080 86.841586 -0.000002 -0.000003 -16.666004 445.732299 7.999200 48.456770 -1.961896 0.232304 -2.727401 -1136.165140 -39.582944 -35.307345 0.000000 -0.000005 -20.526802 982.541618 118.395127 -217.446790 0.000001 0.000002 -16.867298 -12.941918 17.342929 -3.342402
